<svg width="72" height="13" viewBox="0 0 72 13" fill="#c9cfd2" xmlns="http://www.w3.org/2000/svg">
<path fill-rule="evenodd" clip-rule="evenodd" d="M41.6066 2.402V0.759949C41.6066 0.507326 41.7835 0.355751 42.0108 0.355751H49.3368C49.5642 0.355751 49.7663 0.532588 49.7663 0.759949V2.14938C49.7663 2.37674 49.5642 2.67989 49.2105 3.18513L45.4212 8.59126C46.8359 8.566 48.3263 8.7681 49.5894 9.47545C49.8673 9.62702 49.9431 9.87964 49.9684 10.107V11.8501C49.9684 12.1027 49.7158 12.3806 49.4379 12.229C47.1896 11.0417 44.1834 10.9154 41.7077 12.2543C41.4551 12.3806 41.1772 12.128 41.1772 11.8754V10.2081C41.1772 9.95543 41.1772 9.50071 41.4551 9.09651L45.8507 2.8062H42.0361C41.8087 2.8062 41.6066 2.62936 41.6066 2.402ZM14.9046 12.5827H12.6816C12.4795 12.5574 12.3026 12.4059 12.2774 12.2038V0.785213C12.2774 0.557852 12.4795 0.381015 12.7068 0.381015H14.7783C15.0057 0.381015 15.1572 0.557851 15.1825 0.759949V2.25042H15.233C15.7635 0.810472 16.7993 0.128391 18.1634 0.128391C19.5528 0.128391 20.437 0.810472 21.0433 2.25042C21.5738 0.810472 22.8117 0.128391 24.1253 0.128391C25.06 0.128391 26.0705 0.507326 26.702 1.39151C27.4094 2.35147 27.2578 3.7409 27.2578 4.97876V12.2038C27.2578 12.4311 27.0557 12.608 26.8283 12.608H24.6305C24.4032 12.5827 24.2263 12.4059 24.2263 12.2038V6.14082C24.2263 5.66083 24.2769 4.44824 24.1758 3.99352C23.999 3.23565 23.519 3.00829 22.8622 3.00829C22.3317 3.00829 21.7506 3.36197 21.5233 3.943C21.2959 4.52403 21.3212 5.484 21.3212 6.14082V12.2038C21.3212 12.4311 21.1191 12.608 20.8917 12.608H18.6687C18.4413 12.5827 18.2645 12.4059 18.2645 12.2038V6.14082C18.2645 4.8777 18.4666 2.98303 16.9003 2.98303C15.3088 2.98303 15.3593 4.80192 15.3593 6.14082V12.2038C15.3341 12.4059 15.1572 12.5827 14.9046 12.5827ZM56.0818 0.128391C59.3911 0.128391 61.1847 2.95777 61.1847 6.57028C61.1847 10.0565 59.2143 12.8353 56.0818 12.8353C52.8483 12.8353 51.0799 10.006 51.0799 6.46923C51.0547 2.90725 52.8483 0.128391 56.0818 0.128391ZM56.0818 2.47778C54.4398 2.47778 54.3387 4.72613 54.3387 6.11556C54.3387 7.50499 54.3135 10.4859 56.0565 10.4859C57.7744 10.4859 57.8754 8.08602 57.8754 6.62081C57.8754 5.66084 57.8249 4.49877 57.547 3.58933C57.2944 2.78094 56.7891 2.47778 56.0818 2.47778ZM65.454 12.5827H63.231C63.0036 12.5574 62.8268 12.3806 62.8268 12.1785V0.734685C62.852 0.532587 63.0289 0.355751 63.2562 0.355751H65.3277C65.5298 0.355751 65.6814 0.507329 65.7319 0.684165V2.42726H65.7824C66.414 0.861 67.2729 0.128391 68.8139 0.128391C69.7991 0.128391 70.7843 0.482061 71.4159 1.46729C71.9969 2.37673 71.9969 3.91774 71.9969 5.02928V12.229C71.9716 12.4311 71.7948 12.5827 71.5675 12.5827H69.3444C69.1423 12.5574 68.9655 12.4059 68.9402 12.229V6.01451C68.9402 4.75139 69.0918 2.93251 67.5508 2.93251C67.0203 2.93251 66.515 3.28618 66.2624 3.84195C65.9593 4.5493 65.9087 5.23137 65.9087 6.01451V12.1785C65.8835 12.4059 65.6814 12.5827 65.454 12.5827ZM35.7711 7.12605C35.7711 7.98497 35.7964 8.71758 35.3669 9.50071C35.0132 10.1323 34.4575 10.5112 33.8259 10.5112C32.967 10.5112 32.4618 9.85438 32.4618 8.89442C32.4618 6.99974 34.1543 6.64606 35.7711 6.64606V7.12605ZM38.0194 12.5575C37.8678 12.6838 37.6657 12.709 37.4889 12.608C36.7563 12.0017 36.6047 11.6985 36.2005 11.1175C34.988 12.3553 34.1038 12.7343 32.5375 12.7343C30.6682 12.7343 29.203 11.5722 29.203 9.27335C29.203 7.45446 30.1882 6.24187 31.5776 5.63557C32.7902 5.10506 34.4827 5.00402 35.7711 4.85245V4.57456C35.7711 4.04405 35.8216 3.41249 35.4932 2.95777C35.2153 2.55358 34.7101 2.37674 34.2554 2.37674C33.3965 2.37674 32.6386 2.8062 32.4618 3.71564C32.4112 3.91774 32.2849 4.11983 32.0828 4.11983L29.9356 3.89247C29.7587 3.84195 29.5566 3.71564 29.6072 3.43776C30.1124 0.810475 32.4618 0.0273438 34.5838 0.0273438C35.67 0.0273438 37.0847 0.305228 37.9436 1.13888C39.0299 2.14938 38.9289 3.51354 38.9289 4.97876V8.43969C38.9289 9.47544 39.3583 9.93017 39.7625 10.5112C39.9141 10.7133 39.9393 10.9659 39.7625 11.0922C39.2825 11.4712 38.4741 12.1785 38.0194 12.5575ZM6.5934 7.12605C6.5934 7.98497 6.61866 8.71758 6.18921 9.50071C5.83554 10.1323 5.27977 10.5112 4.64822 10.5112C3.78931 10.5112 3.28407 9.85438 3.28407 8.89442C3.28407 6.99974 4.97663 6.64606 6.5934 6.64606V7.12605ZM8.81646 12.5575C8.66489 12.6838 8.4628 12.709 8.28596 12.608C7.55336 12.0017 7.40179 11.6985 6.99759 11.1175C5.78501 12.3553 4.90084 12.7343 3.33459 12.7343C1.4652 12.7343 0 11.5722 0 9.27335C0 7.45446 0.985219 6.24187 2.37463 5.63557C3.58721 5.10506 5.27977 5.00402 6.56814 4.85245V4.57456C6.56814 4.04405 6.61866 3.41249 6.29025 2.95777C6.01237 2.55358 5.50713 2.37674 5.05241 2.37674C4.1935 2.37674 3.43564 2.8062 3.25881 3.71564C3.20828 3.91774 3.08197 4.11983 2.87987 4.11983L0.732599 3.89247C0.555764 3.84195 0.353671 3.71564 0.404195 3.43776C0.909436 0.810475 3.25881 0.0273438 5.38082 0.0273438C6.46709 0.0273438 7.88177 0.305228 8.74068 1.13888C9.82695 2.14938 9.7259 3.51354 9.7259 4.97876V8.43969C9.7259 9.47544 10.1554 9.93017 10.5595 10.5112C10.7111 10.7133 10.7364 10.9659 10.5595 11.0922C10.0796 11.4712 9.27118 12.1785 8.81646 12.5575Z" fill="#c9cfd2"/>
</svg>
