<svg width="72" height="14" viewBox="0 0 72 14" fill="#c9cfd2" xmlns="http://www.w3.org/2000/svg">
<path d="M7.33729 5.281C7.33729 6.92047 6.54292 8.03087 4.53116 8.03087H3.89548V2.80948C4.12147 2.79673 4.33252 2.79673 4.53116 2.79673C6.43604 2.79655 7.33729 3.69522 7.33729 5.281ZM5.27228 10.3043C8.87188 10.3043 11.1478 8.45327 11.1478 5.22874C11.1476 1.68561 8.71283 0.416992 4.74293 0.416992C3.20762 0.416992 1.35492 0.522411 0.0319214 0.680989V13.3187H3.89566V10.3043H5.27228ZM57.0403 5.281C57.0403 6.92047 56.247 8.03087 54.2347 8.03087H53.6012V2.80948C53.8252 2.79673 54.0366 2.79673 54.2347 2.79673C56.1398 2.79655 57.0403 3.69522 57.0403 5.281ZM54.9776 10.3043C58.5744 10.3043 60.8515 8.45327 60.8515 5.22874C60.8515 1.68561 58.4171 0.416992 54.4469 0.416992C52.9119 0.416992 51.0581 0.522411 49.735 0.680989V13.3187H53.6007V10.3043H54.9776ZM65.8794 3.90624C65.8794 3.21913 66.5683 2.90143 67.6788 2.90143C68.8968 2.90143 70.221 3.16597 71.1201 3.53754L70.8029 0.787126C69.7966 0.57557 68.8968 0.416992 67.2564 0.416992C64.133 0.416992 62.0164 1.64682 62.0164 4.22447C62.0164 8.66482 68.0516 7.7667 68.0516 9.82874C68.0516 10.6211 67.4685 11.0438 66.0386 11.0438C64.7701 11.0438 62.8102 10.6211 61.6459 10.0398L62.0705 12.9488C63.2339 13.3717 64.822 13.5825 66.0928 13.5825C69.3207 13.5825 71.9679 12.5247 71.9679 9.35175C71.9679 5.12332 65.8794 5.91567 65.8794 3.90624ZM46.8248 0.680989H42.9611V13.3187H46.8248V0.680989ZM31.1563 0.680989H27.2922V13.3187H31.1563V0.680989ZM37.8787 10.7799V0.680989H34.0146V13.3187H41.0024L41.5841 10.7799H37.8787ZM24.4341 0.680989H20.57V5.70411H16.547V0.680989H12.6822V13.3187H16.5468V8.34785H20.5698V13.3187H24.4339L24.4341 0.680989Z" fill="#c9cfd2"/>
</svg>
