<svg width="72" height="24" viewBox="0 0 72 24" fill="#c9cfd2" xmlns="http://www.w3.org/2000/svg">
<path fill-rule="evenodd" clip-rule="evenodd" d="M62.965 14.6921C69.0781 11.7011 72.4497 8.29631 71.9516 5.47654C70.9032 -0.449771 52.9411 -1.40431 34.4043 1.88659C25.9212 3.39295 17.8081 5.65392 12.3156 7.89606C12.6073 7.87762 12.8113 7.89114 12.8113 7.89114C15.1854 7.95669 15.0403 9.43274 15.0403 9.43274L15.044 10.3344H13.1513V9.72237C13.1513 9.28812 12.6225 9.25904 12.6225 9.25904C12.2177 9.25904 12.1231 9.53393 12.1231 9.53393C11.899 9.95343 12.2824 10.3156 12.2824 10.3156C12.4778 10.5331 13.4619 10.9887 13.4619 10.9887C13.7806 11.112 14.2943 11.4303 14.2943 11.4303C15.2571 12.0092 15.1698 13.1091 15.1698 13.1091V13.8334C15.0543 15.6286 12.579 15.5774 12.579 15.5774C9.98745 15.5774 10.044 13.8773 10.044 13.8773V12.9887H12.0604V13.6007C12.0604 14.1218 12.5639 14.1452 12.5639 14.1452C13.1141 14.1665 13.1608 13.6343 13.1608 13.6343C13.2357 13.1169 12.6655 12.7912 12.6655 12.7912C12.1616 12.5298 11.6597 12.2645 11.1599 11.9952C10.6966 11.6913 10.5086 11.416 10.5086 11.416C10.1755 10.9965 10.1976 10.3447 10.1976 10.3447V9.78014C10.1976 8.99848 10.4078 8.77439 10.4078 8.77439C10.4165 8.75751 10.4257 8.74085 10.4352 8.72441C3.66416 11.8535 -0.480899 15.4803 0.0443005 18.4623C1.10986 24.5115 18.0494 25.305 37.973 22.2366C47.1467 20.8241 55.1304 18.2235 61.1723 15.5303C61.1293 15.5323 61.0834 15.5323 61.0395 15.5323C61.0395 15.5323 58.5975 15.7298 58.5397 13.7613V9.95384C58.5397 9.95384 58.2357 7.85509 60.9715 7.85509C60.9715 7.85509 62.7528 7.79733 63.2231 8.85387C63.2231 8.85387 63.455 9.13654 63.3935 10.3049H61.4963V9.7064C61.4963 9.7064 61.493 9.22298 61.001 9.22298C61.001 9.22298 60.4865 9.2447 60.4865 9.64986V13.5872C60.4865 13.5872 60.4648 14.1157 61.044 14.1157C61.044 14.1157 61.5193 14.105 61.5193 13.5491V12.4106H61.0014V11.3504H63.4386V13.5872C63.4386 13.5872 63.432 14.0575 63.237 14.3324C63.2378 14.3328 63.0404 14.6356 62.965 14.6921ZM56.0182 15.3304H53.7834L51.7904 10.9334H51.7064L51.8191 15.33H49.9436V8.14022H52.2472L54.1722 12.5016H54.2546L54.1194 8.1394H56.0182V15.3304ZM44.2668 13.5446C44.2668 14.1538 44.8452 14.1231 44.8452 14.1231C45.3958 14.1231 45.3675 13.5295 45.3675 13.5295V8.10909H47.3774V13.595C47.3774 15.5717 44.8747 15.5418 44.8747 15.5418C41.9935 15.5418 42.2045 13.5008 42.2045 13.5008V8.10868H44.2602L44.2668 13.5446ZM37.9504 10.3344V9.72237C37.9504 9.28771 37.4224 9.25904 37.4224 9.25904C37.0168 9.25904 36.9221 9.53393 36.9221 9.53393C36.6981 9.95343 37.0823 10.3156 37.0823 10.3156C37.2777 10.5323 38.2618 10.9887 38.2618 10.9887C38.5801 11.1116 39.0938 11.4303 39.0938 11.4303C40.0566 12.0092 39.9701 13.1091 39.9701 13.1091V13.8334C39.8542 15.6286 37.3793 15.5778 37.3793 15.5778C34.7874 15.5778 34.8439 13.8773 34.8439 13.8773V12.9887H36.8607V13.6007C36.8607 14.1218 37.3642 14.1452 37.3642 14.1452C37.9148 14.1665 37.9603 13.6343 37.9603 13.6343C38.0365 13.1169 37.4658 12.7912 37.4658 12.7912C36.9619 12.5297 36.4601 12.2644 35.9602 11.9952C35.4965 11.6913 35.3089 11.416 35.3089 11.416C34.9762 10.996 34.9971 10.3443 34.9971 10.3443V9.77973C34.9971 8.99807 35.2073 8.77398 35.2073 8.77398C35.7431 7.76783 37.6104 7.89073 37.6104 7.89073C39.9844 7.95628 39.8394 9.43274 39.8394 9.43274L39.8435 10.3344H37.9504ZM28.0188 8.13818L28.6247 12.0735H28.7725L29.4063 8.13858H32.5366L32.739 15.3291H30.857L30.8123 9.91287H30.6824L29.7021 15.3279H27.7336L26.741 9.91123H26.5939L26.5714 15.3295H24.7L24.8581 8.13818H28.0188ZM20.6754 15.3214L19.938 9.74695H19.7729L19.0351 15.3214H17.0207L18.2653 8.13203H21.4456L22.691 15.3214H20.6754Z" fill="#c9cfd2"/>
</svg>
