<svg width="72" height="12" viewBox="0 0 72 12" fill="#c9cfd2" xmlns="http://www.w3.org/2000/svg">
<path fill-rule="evenodd" clip-rule="evenodd" d="M6.44413 11.2452H3.66657V3.28346H0.45459V0.893612H9.82719V3.28346H6.44413V11.2452ZM11.1413 3.62523C11.5604 1.1887 13.7328 0.831606 15.8126 0.831606C19.3821 0.831606 20.639 1.71612 20.639 5.45628C20.639 9.28944 20.546 11.3226 15.8903 11.3226C14.0436 11.3226 11.8398 11.1832 11.219 9.0571C11.0173 8.3586 11.0016 7.62948 11.0016 6.89997V6.13909C11.0016 5.31658 11.0016 4.44775 11.1413 3.62523ZM13.8415 6.71321C13.8415 8.17221 13.8725 8.94803 15.5952 8.94803C17.4886 8.94803 17.7834 8.48224 17.7834 6.71321C17.7834 6.21679 17.7991 5.70468 17.7991 5.20788C17.7991 3.82657 17.5817 3.20614 16.092 3.20614C13.9196 3.20614 13.8882 3.42353 13.8419 6.0924V6.71321H13.8415ZM28.7539 4.12166C28.7539 3.06606 28.3811 2.92674 27.3883 2.92674H27.1089C26.3794 2.92674 25.6036 2.95774 25.6036 3.87326C25.6036 4.50975 25.79 4.80447 26.4571 4.85116C28.8622 5.05287 31.7026 4.57176 31.7026 7.9085C31.7026 8.79339 31.7026 9.91062 30.9731 10.5314C30.1192 11.2452 28.9399 11.3072 27.8537 11.3072H27.1709C24.3153 11.3072 22.8253 11.1832 22.8253 7.89281H25.4635C25.4635 8.66863 25.6499 9.13443 26.5187 9.13443H27.7136C28.4121 9.13443 28.9706 9.04104 28.9706 8.10983C28.9706 7.19431 28.4275 7.19431 27.6513 7.14799C24.6563 6.94629 22.8406 7.22531 22.8406 3.78025C22.8406 1.97984 23.5544 1.03331 25.4011 0.893612C26.0062 0.846921 26.6114 0.815918 27.2168 0.815918C29.6224 0.815918 31.4071 0.862608 31.4071 3.79594C31.4071 3.90463 31.3914 4.01333 31.3914 4.12203H28.7539V4.12166ZM43.0261 11.2452H40.2478V7.179H36.6473V11.2452H33.8694V0.893612H36.6473V4.80447H40.2478V0.893612H43.0261V11.2452ZM48.4501 11.2452H45.6726V0.893612H48.4501V11.2452ZM51.1145 0.893612H56.7481C58.6258 0.893612 59.8364 1.40572 59.8364 3.53185C59.8364 4.72677 59.7277 5.68899 58.2228 5.93738V6.03002C59.6198 6.15441 60.0071 6.89922 60.0071 8.26485C60.0071 10.5927 59.2317 11.2449 56.7948 11.2449H51.1145V0.893612ZM55.6619 5.03718C56.4227 5.00618 57.0895 5.09956 57.0895 4.15266C57.0895 3.40784 56.8881 3.17476 56.1433 3.17476H53.8928V5.03718H55.6619ZM55.7399 8.96372C56.6088 8.96372 57.2449 8.94804 57.2449 7.9395C57.2449 6.97729 56.7948 6.94629 55.9259 6.94629H53.8928V8.96372H55.7399ZM68.571 11.2452H71.3957L68.2446 0.893612H64.0394L60.935 11.2452H63.822L64.4136 9.1658H67.9708L68.571 11.2452ZM64.984 7.16368L66.1812 2.95774L67.3944 7.16368H64.984Z" fill="#c9cfd2"/>
</svg>
